<?xml version="1.0" encoding="UTF-8" standalone="no"?><!DOCTYPE svg PUBLIC "-//W3C//DTD SVG 1.1//EN" "http://www.w3.org/Graphics/SVG/1.1/DTD/svg11.dtd"><svg width="100%" height="100%" viewBox="0 0 2550 2550" version="1.1" xmlns="http://www.w3.org/2000/svg" xmlns:xlink="http://www.w3.org/1999/xlink" xml:space="preserve" xmlns:serif="http://www.serif.com/" style="fill-rule:evenodd;clip-rule:evenodd;stroke-linejoin:round;stroke-miterlimit:2;"><g><path d="M504.572,505.017l1591.44,1572.42" style="fill:none;"/><path d="M460.227,549.899c-24.772,-24.475 -25.012,-64.457 -0.537,-89.228c24.476,-24.771 64.457,-25.011 89.228,-0.536l1591.44,1572.42c24.771,24.475 25.011,64.457 0.536,89.228c-24.475,24.771 -64.457,25.011 -89.228,0.536l-1591.43,-1572.42Z" style="fill:#ff2107;"/><path d="M719.061,351.625l1525.69,1507.47" style="fill:none;"/><path d="M674.715,396.507c-24.771,-24.475 -25.011,-64.457 -0.536,-89.228c24.475,-24.771 64.457,-25.011 89.228,-0.536l1525.69,1507.46c24.771,24.476 25.011,64.457 0.536,89.228c-24.475,24.772 -64.457,25.012 -89.228,0.537l-1525.69,-1507.47Z" style="fill:#ff2107;"/><path d="M988.614,254.084l1337.03,1321.06" style="fill:none;"/><path d="M944.268,298.966c-24.771,-24.476 -25.011,-64.457 -0.536,-89.228c24.475,-24.772 64.457,-25.012 89.228,-0.537l1337.03,1321.06c24.771,24.475 25.011,64.457 0.536,89.228c-24.475,24.771 -64.457,25.011 -89.228,0.536l-1337.03,-1321.06Z" style="fill:#ff2107;"/><path d="M1264.7,165.332l1121.29,1107.89" style="fill:none;"/><path d="M1220.36,210.214c-24.771,-24.475 -25.011,-64.457 -0.536,-89.228c24.475,-24.771 64.457,-25.012 89.228,-0.537l1121.29,1107.89c24.771,24.476 25.011,64.457 0.536,89.229c-24.475,24.771 -64.457,25.011 -89.228,0.536l-1121.29,-1107.89Z" style="fill:#ff2107;"/><path d="M1725.66,264.022l553.668,547.053" style="fill:none;"/><path d="M1681.31,308.904c-24.771,-24.475 -25.011,-64.457 -0.536,-89.228c24.475,-24.771 64.457,-25.012 89.228,-0.536l553.668,547.053c24.771,24.475 25.012,64.457 0.536,89.228c-24.475,24.771 -64.457,25.011 -89.228,0.536l-553.668,-547.053Z" style="fill:#ff2107;"/><path d="M232.645,1767.15l553.667,547.053" style="fill:none;"/><path d="M188.299,1812.04c-24.771,-24.475 -25.012,-64.457 -0.537,-89.228c24.476,-24.771 64.457,-25.012 89.229,-0.536l553.667,547.053c24.772,24.475 25.012,64.457 0.537,89.228c-24.476,24.771 -64.457,25.011 -89.228,0.536l-553.668,-547.053Z" style="fill:#ff2107;"/><path d="M340.392,740.702l1529.57,1478.57" style="fill:none;"/><path d="M296.54,786.066c-25.037,-24.202 -25.715,-64.179 -1.512,-89.217c24.202,-25.037 64.179,-25.715 89.216,-1.512l1529.57,1478.57c25.037,24.203 25.715,64.179 1.512,89.217c-24.202,25.037 -64.179,25.715 -89.216,1.512l-1529.57,-1478.57Z" style="fill:#ff2107;"/><path d="M233.717,1027.95l1351.41,1306.35" style="fill:none;"/><path d="M189.865,1073.32c-25.037,-24.203 -25.715,-64.179 -1.512,-89.217c24.202,-25.037 64.179,-25.715 89.217,-1.512l1351.4,1306.35c25.038,24.203 25.715,64.179 1.513,89.217c-24.203,25.037 -64.18,25.715 -89.217,1.512l-1351.41,-1306.35Z" style="fill:#ff2107;"/><path d="M164.009,1343.04l1077.56,1041.63" style="fill:none;"/><path d="M120.157,1388.4c-25.037,-24.203 -25.715,-64.179 -1.513,-89.217c24.203,-25.037 64.18,-25.715 89.217,-1.512l1077.56,1041.63c25.038,24.202 25.715,64.179 1.513,89.216c-24.203,25.038 -64.18,25.716 -89.217,1.513l-1077.56,-1041.63Z" style="fill:#ff2107;"/></g></svg>